<svg width="61" height="61" viewBox="0 0 61 61" fill="none" xmlns="http://www.w3.org/2000/svg">
<path d="M51.4688 0H9.53125C4.26729 0 0 4.26729 0 9.53125V51.4688C0 56.7327 4.26729 61 9.53125 61H51.4688C56.7327 61 61 56.7327 61 51.4688V9.53125C61 4.26729 56.7327 0 51.4688 0Z" fill="black"/>
<path fill-rule="evenodd" clip-rule="evenodd" d="M30.4534 15.616C22.0589 15.616 15.25 22.4248 15.25 30.8193C15.25 37.5349 19.6338 43.2245 25.6032 45.2765C26.3494 45.3698 26.6292 44.9034 26.6292 44.5303C26.6292 44.1573 26.6292 43.2245 26.6292 41.9187C22.432 42.8514 21.4992 39.8667 21.4992 39.8667C20.8463 38.0946 19.8203 37.6282 19.8203 37.6282C18.4213 36.6955 19.9136 36.6955 19.9136 36.6955C21.406 36.7888 22.2454 38.2811 22.2454 38.2811C23.6445 40.6129 25.7898 39.96 26.6292 39.5869C26.7225 38.5609 27.1888 37.908 27.5619 37.5349C24.2041 37.1618 20.6598 35.856 20.6598 29.9799C20.6598 28.301 21.2194 26.9952 22.2454 25.8759C22.1521 25.5961 21.5925 24.0105 22.432 21.9585C22.432 21.9585 23.7378 21.5854 26.6292 23.5441C27.8417 23.171 29.1476 23.0777 30.4534 23.0777C31.7592 23.0777 33.065 23.2643 34.2775 23.5441C37.169 21.5854 38.4748 21.9585 38.4748 21.9585C39.3142 24.0105 38.7546 25.5961 38.6613 25.9692C39.594 26.9952 40.2469 28.3943 40.2469 30.0732C40.2469 35.9493 36.7026 37.1618 33.3448 37.5349C33.9044 38.0013 34.3708 38.934 34.3708 40.3331C34.3708 42.3851 34.3708 43.9707 34.3708 44.5303C34.3708 44.9034 34.6506 45.3698 35.3968 45.2765C41.4595 43.2245 45.75 37.5349 45.75 30.8193C45.6567 22.4248 38.8479 15.616 30.4534 15.616Z" fill="white"/>
</svg>
