<svg width="377" height="122" viewBox="0 0 377 122" fill="none" xmlns="http://www.w3.org/2000/svg">
<path d="M3.71591 12H1.15909V3.27273H3.86932C4.7017 3.27273 5.41335 3.44602 6.00426 3.79261C6.59801 4.1392 7.05256 4.63636 7.3679 5.28409C7.68324 5.93182 7.84091 6.70881 7.84091 7.61506C7.84091 8.52983 7.67898 9.31534 7.35511 9.97159C7.03409 10.625 6.56534 11.1264 5.94886 11.4759C5.33523 11.8253 4.59091 12 3.71591 12ZM1.95597 11.2841H3.66903C4.41903 11.2841 5.04688 11.1364 5.55256 10.8409C6.05824 10.5455 6.4375 10.1236 6.69034 9.57528C6.94318 9.02699 7.0696 8.37358 7.0696 7.61506C7.06676 6.86222 6.94176 6.21449 6.6946 5.67188C6.45028 5.12926 6.08665 4.71307 5.60369 4.4233C5.12358 4.13352 4.52983 3.98864 3.82244 3.98864H1.95597V11.2841ZM12.261 12.1364C11.6502 12.1364 11.1218 11.9943 10.6758 11.7102C10.2298 11.4233 9.88459 11.027 9.64027 10.5213C9.39879 10.0128 9.27805 9.42756 9.27805 8.76562C9.27805 8.10653 9.39879 7.52131 9.64027 7.00994C9.88459 6.49574 10.2212 6.09375 10.6502 5.80398C11.082 5.51136 11.5806 5.36506 12.146 5.36506C12.5011 5.36506 12.8434 5.4304 13.1729 5.56108C13.5025 5.68892 13.7979 5.88636 14.0593 6.15341C14.3235 6.41761 14.5323 6.75142 14.6857 7.15483C14.8391 7.5554 14.9158 8.02983 14.9158 8.57812V8.95312H9.8022V8.28409H14.1403C14.1403 7.86364 14.055 7.4858 13.8846 7.15057C13.717 6.8125 13.4826 6.54545 13.1815 6.34943C12.8832 6.15341 12.538 6.0554 12.146 6.0554C11.7312 6.0554 11.3661 6.16619 11.0508 6.38778C10.7354 6.60937 10.4883 6.90199 10.3093 7.26562C10.1332 7.62926 10.0437 8.02699 10.0408 8.45881V8.85938C10.0408 9.37926 10.1303 9.83381 10.3093 10.223C10.4911 10.6094 10.7482 10.9091 11.0806 11.1222C11.413 11.3352 11.8065 11.4418 12.261 11.4418C12.5707 11.4418 12.842 11.3935 13.0749 11.2969C13.3107 11.2003 13.5082 11.071 13.6673 10.9091C13.8292 10.7443 13.9513 10.5639 14.0337 10.3679L14.7539 10.6023C14.6545 10.8778 14.4911 11.1321 14.2638 11.3651C14.0394 11.598 13.7582 11.7855 13.4201 11.9276C13.0849 12.0668 12.6985 12.1364 12.261 12.1364ZM19.1442 12.1364C18.5589 12.1364 18.049 11.9901 17.6143 11.6974C17.1825 11.4048 16.8473 11.0043 16.6087 10.4957C16.37 9.98722 16.2507 9.40767 16.2507 8.7571C16.2507 8.10085 16.3714 7.51705 16.6129 7.00568C16.8572 6.49432 17.1953 6.09375 17.6271 5.80398C18.0589 5.51136 18.5604 5.36506 19.1314 5.36506C19.5689 5.36506 19.9652 5.45028 20.3203 5.62074C20.6754 5.78835 20.968 6.02557 21.1982 6.33239C21.4311 6.63636 21.5774 6.99148 21.6371 7.39773H20.87C20.7905 7.02841 20.5987 6.71307 20.2947 6.4517C19.9936 6.1875 19.6101 6.0554 19.1442 6.0554C18.7266 6.0554 18.3572 6.16903 18.0362 6.39631C17.7152 6.62074 17.4638 6.93466 17.282 7.33807C17.103 7.73864 17.0135 8.20312 17.0135 8.73153C17.0135 9.26278 17.1016 9.73295 17.2777 10.142C17.4538 10.5483 17.701 10.8665 18.0192 11.0966C18.3402 11.3267 18.7152 11.4418 19.1442 11.4418C19.4339 11.4418 19.6982 11.3878 19.9368 11.2798C20.1783 11.169 20.38 11.0128 20.5419 10.8111C20.7067 10.6094 20.8175 10.3693 20.8743 10.0909H21.6413C21.5845 10.4858 21.4439 10.8381 21.2195 11.1477C20.9979 11.4545 20.7095 11.696 20.3544 11.8722C20.0021 12.0483 19.5987 12.1364 19.1442 12.1364Z" fill="white"/>
<path d="M111.466 3.27273H112.263V9.56676C112.26 10.1349 112.158 10.6094 111.956 10.9901C111.754 11.3679 111.476 11.6506 111.121 11.8381C110.766 12.0256 110.358 12.1193 109.898 12.1193C109.446 12.1193 109.043 12.0355 108.688 11.8679C108.332 11.7003 108.053 11.4645 107.848 11.1605C107.646 10.8565 107.545 10.5 107.545 10.0909H108.33C108.33 10.3494 108.398 10.5781 108.534 10.777C108.67 10.973 108.857 11.1264 109.092 11.2372C109.331 11.348 109.599 11.4034 109.898 11.4034C110.207 11.4034 110.479 11.3381 110.712 11.2074C110.947 11.0767 111.132 10.8764 111.266 10.6065C111.399 10.3338 111.466 9.98722 111.466 9.56676V3.27273ZM116.251 12.1491C115.857 12.1491 115.496 12.0724 115.169 11.919C114.842 11.7628 114.582 11.5384 114.389 11.2457C114.196 10.9503 114.099 10.5923 114.099 10.1719C114.099 9.84801 114.161 9.57528 114.283 9.35369C114.405 9.1321 114.578 8.95028 114.803 8.80824C115.027 8.66619 115.293 8.55398 115.599 8.47159C115.906 8.3892 116.244 8.32528 116.614 8.27983C116.98 8.23437 117.29 8.1946 117.543 8.16051C117.798 8.12642 117.993 8.07244 118.126 7.99858C118.26 7.92472 118.327 7.8054 118.327 7.64062V7.48722C118.327 7.04119 118.193 6.69034 117.926 6.43466C117.662 6.17614 117.281 6.04688 116.784 6.04688C116.312 6.04688 115.928 6.15057 115.629 6.35795C115.334 6.56534 115.126 6.80966 115.007 7.09091L114.287 6.83097C114.435 6.47301 114.639 6.1875 114.901 5.97443C115.162 5.75852 115.455 5.60369 115.778 5.50994C116.102 5.41335 116.43 5.36506 116.763 5.36506C117.013 5.36506 117.273 5.39773 117.543 5.46307C117.815 5.52841 118.068 5.64205 118.301 5.80398C118.534 5.96307 118.723 6.18608 118.868 6.47301C119.013 6.7571 119.085 7.1179 119.085 7.5554V12H118.327V10.9645H118.28C118.189 11.1577 118.054 11.3452 117.875 11.527C117.696 11.7088 117.472 11.858 117.202 11.9744C116.932 12.0909 116.615 12.1491 116.251 12.1491ZM116.354 11.4545C116.757 11.4545 117.107 11.3651 117.402 11.1861C117.697 11.0071 117.925 10.7699 118.084 10.4744C118.246 10.1761 118.327 9.84801 118.327 9.49006V8.54403C118.27 8.59801 118.175 8.64631 118.041 8.68892C117.911 8.73153 117.759 8.76989 117.585 8.80398C117.415 8.83523 117.244 8.86222 117.074 8.88494C116.903 8.90767 116.75 8.92756 116.614 8.9446C116.244 8.99006 115.929 9.06108 115.668 9.15767C115.406 9.25426 115.206 9.38778 115.067 9.55824C114.928 9.72585 114.858 9.94176 114.858 10.206C114.858 10.6037 115 10.9119 115.284 11.1307C115.568 11.3466 115.925 11.4545 116.354 11.4545ZM121.862 7.90909V12H121.103V5.45455H121.84V6.48153H121.908C122.062 6.14631 122.3 5.87784 122.624 5.67614C122.951 5.47159 123.354 5.36932 123.835 5.36932C124.275 5.36932 124.661 5.46165 124.994 5.64631C125.329 5.82812 125.589 6.09659 125.773 6.4517C125.961 6.80682 126.055 7.2429 126.055 7.75994V12H125.296V7.80682C125.296 7.26989 125.146 6.84517 124.844 6.53267C124.546 6.22017 124.146 6.06392 123.643 6.06392C123.299 6.06392 122.994 6.13778 122.727 6.28551C122.46 6.43324 122.248 6.64631 122.092 6.92472C121.938 7.20028 121.862 7.52841 121.862 7.90909Z" fill="white"/>
<path d="M221.159 12V3.27273H226.209V3.98864H221.956V7.27415H225.812V7.99006H221.956V12H221.159ZM230.199 12.1364C229.588 12.1364 229.059 11.9943 228.613 11.7102C228.167 11.4233 227.822 11.027 227.578 10.5213C227.336 10.0128 227.216 9.42756 227.216 8.76562C227.216 8.10653 227.336 7.52131 227.578 7.00994C227.822 6.49574 228.159 6.09375 228.588 5.80398C229.02 5.51136 229.518 5.36506 230.083 5.36506C230.439 5.36506 230.781 5.4304 231.11 5.56108C231.44 5.68892 231.735 5.88636 231.997 6.15341C232.261 6.41761 232.47 6.75142 232.623 7.15483C232.777 7.5554 232.853 8.02983 232.853 8.57812V8.95312H227.74V8.28409H232.078C232.078 7.86364 231.993 7.4858 231.822 7.15057C231.654 6.8125 231.42 6.54545 231.119 6.34943C230.821 6.15341 230.475 6.0554 230.083 6.0554C229.669 6.0554 229.304 6.16619 228.988 6.38778C228.673 6.60937 228.426 6.90199 228.247 7.26562C228.071 7.62926 227.981 8.02699 227.978 8.45881V8.85938C227.978 9.37926 228.068 9.83381 228.247 10.223C228.429 10.6094 228.686 10.9091 229.018 11.1222C229.35 11.3352 229.744 11.4418 230.199 11.4418C230.508 11.4418 230.779 11.3935 231.012 11.2969C231.248 11.2003 231.446 11.071 231.605 10.9091C231.767 10.7443 231.889 10.5639 231.971 10.3679L232.691 10.6023C232.592 10.8778 232.429 11.1321 232.201 11.3651C231.977 11.598 231.696 11.7855 231.358 11.9276C231.022 12.0668 230.636 12.1364 230.199 12.1364ZM234.683 12V3.27273H235.445V6.70312H235.513C235.599 6.5071 235.721 6.3054 235.88 6.09801C236.042 5.89062 236.254 5.71733 236.515 5.57812C236.779 5.43608 237.112 5.36506 237.512 5.36506C238.049 5.36506 238.521 5.5071 238.927 5.79119C239.333 6.07244 239.65 6.46733 239.877 6.97585C240.104 7.48153 240.218 8.07102 240.218 8.74432C240.218 9.42045 240.104 10.0128 239.877 10.5213C239.653 11.0298 239.337 11.4261 238.931 11.7102C238.528 11.9943 238.059 12.1364 237.525 12.1364C237.127 12.1364 236.795 12.0653 236.528 11.9233C236.263 11.7812 236.05 11.6065 235.888 11.3991C235.727 11.1889 235.602 10.9844 235.513 10.7855H235.42V12H234.683ZM235.433 8.73153C235.433 9.25994 235.511 9.72869 235.667 10.1378C235.826 10.544 236.053 10.8636 236.349 11.0966C236.647 11.3267 237.008 11.4418 237.431 11.4418C237.866 11.4418 238.234 11.3224 238.535 11.0838C238.836 10.8423 239.065 10.517 239.221 10.108C239.377 9.69886 239.455 9.24006 239.455 8.73153C239.455 8.22869 239.377 7.77557 239.221 7.37216C239.067 6.96875 238.84 6.64915 238.539 6.41335C238.238 6.17472 237.869 6.0554 237.431 6.0554C237.005 6.0554 236.643 6.17045 236.344 6.40057C236.049 6.62784 235.823 6.94318 235.667 7.34659C235.511 7.74716 235.433 8.20881 235.433 8.73153Z" fill="white"/>
<path d="M348.159 3.27273H349.08L352.246 10.875H352.322L355.489 3.27273H356.409V12H355.659V4.95597H355.591L352.646 12H351.922L348.977 4.95597H348.909V12H348.159V3.27273ZM360.4 12.1491C360.005 12.1491 359.644 12.0724 359.317 11.919C358.991 11.7628 358.731 11.5384 358.538 11.2457C358.344 10.9503 358.248 10.5923 358.248 10.1719C358.248 9.84801 358.309 9.57528 358.431 9.35369C358.553 9.1321 358.727 8.95028 358.951 8.80824C359.175 8.66619 359.441 8.55398 359.748 8.47159C360.055 8.3892 360.393 8.32528 360.762 8.27983C361.129 8.23437 361.438 8.1946 361.691 8.16051C361.947 8.12642 362.141 8.07244 362.275 7.99858C362.408 7.92472 362.475 7.8054 362.475 7.64062V7.48722C362.475 7.04119 362.342 6.69034 362.075 6.43466C361.81 6.17614 361.43 6.04688 360.933 6.04688C360.461 6.04688 360.076 6.15057 359.778 6.35795C359.482 6.56534 359.275 6.80966 359.156 7.09091L358.435 6.83097C358.583 6.47301 358.788 6.1875 359.049 5.97443C359.31 5.75852 359.603 5.60369 359.927 5.50994C360.251 5.41335 360.579 5.36506 360.911 5.36506C361.161 5.36506 361.421 5.39773 361.691 5.46307C361.964 5.52841 362.217 5.64205 362.45 5.80398C362.683 5.96307 362.871 6.18608 363.016 6.47301C363.161 6.7571 363.234 7.1179 363.234 7.5554V12H362.475V10.9645H362.428C362.337 11.1577 362.202 11.3452 362.023 11.527C361.844 11.7088 361.62 11.858 361.35 11.9744C361.08 12.0909 360.763 12.1491 360.4 12.1491ZM360.502 11.4545C360.906 11.4545 361.255 11.3651 361.55 11.1861C361.846 11.0071 362.073 10.7699 362.232 10.4744C362.394 10.1761 362.475 9.84801 362.475 9.49006V8.54403C362.418 8.59801 362.323 8.64631 362.19 8.68892C362.059 8.73153 361.907 8.76989 361.734 8.80398C361.563 8.83523 361.393 8.86222 361.222 8.88494C361.052 8.90767 360.898 8.92756 360.762 8.9446C360.393 8.99006 360.077 9.06108 359.816 9.15767C359.555 9.25426 359.354 9.38778 359.215 9.55824C359.076 9.72585 359.006 9.94176 359.006 10.206C359.006 10.6037 359.148 10.9119 359.433 11.1307C359.717 11.3466 360.073 11.4545 360.502 11.4545ZM365.251 12V5.45455H365.989V6.46023H366.044C366.175 6.13068 366.402 5.86506 366.726 5.66335C367.053 5.45881 367.422 5.35653 367.834 5.35653C367.896 5.35653 367.966 5.35795 368.043 5.3608C368.119 5.36364 368.183 5.36648 368.234 5.36932V6.14062C368.2 6.13494 368.141 6.12642 368.055 6.11506C367.97 6.10369 367.878 6.09801 367.778 6.09801C367.438 6.09801 367.134 6.17045 366.866 6.31534C366.602 6.45739 366.393 6.65483 366.24 6.90767C366.087 7.16051 366.01 7.44886 366.01 7.77273V12H365.251Z" fill="white"/>
<path d="M173.973 26.4045L174.019 36.3553C174.023 37.2209 174.785 37.9209 175.72 37.9188L186.472 37.8948C187.407 37.8927 188.162 37.1893 188.158 36.3237L188.113 26.3729C188.109 25.5073 187.347 24.8073 186.412 24.8094L175.66 24.8334C174.724 24.8355 173.97 25.5389 173.973 26.4045Z" fill="#22538F"/>
<path d="M191.079 42.1272L191.125 52.078C191.129 52.9436 191.89 53.6436 192.826 53.6415L203.578 53.6174C204.513 53.6153 205.268 52.9119 205.264 52.0463L205.218 42.0955C205.215 41.2299 204.453 40.5299 203.518 40.532L192.766 40.5561C191.83 40.5582 191.075 41.2616 191.079 42.1272Z" fill="#2761AA"/>
<path d="M191.007 26.3664L191.053 36.3172C191.057 37.1828 191.818 37.8828 192.753 37.8807L203.505 37.8567C204.441 37.8546 205.196 37.1512 205.192 36.2856L205.146 26.3348C205.142 25.4692 204.381 24.7692 203.445 24.7713L192.693 24.7953C191.758 24.7974 191.003 25.5008 191.007 26.3664Z" fill="#338AF3"/>
<path d="M174.007 58.5991L174.053 68.5499C174.057 69.4155 174.818 70.1155 175.754 70.1134L186.506 70.0893C187.441 70.0872 188.196 69.3838 188.192 68.5183L188.146 58.5674C188.142 57.7019 187.381 57.0019 186.446 57.0039L175.694 57.028C174.758 57.0301 174.003 57.7335 174.007 58.5991Z" fill="#3B3E50" fill-opacity="0.56"/>
<path d="M208.153 57.8552L208.199 67.806C208.203 68.6716 208.964 69.3716 209.9 69.3695L220.652 69.3454C221.587 69.3433 222.342 68.64 222.338 67.7744L222.292 57.8235C222.288 56.958 221.527 56.258 220.592 56.2601L209.84 56.2841C208.904 56.2862 208.149 56.9896 208.153 57.8552Z" fill="#338AF3" fill-opacity="0.39"/>
<path d="M208.009 26.3308L208.054 36.2816C208.058 37.1472 208.82 37.8472 209.755 37.8451L220.507 37.821C221.443 37.8189 222.197 37.1155 222.194 36.25L222.148 26.2991C222.144 25.4335 221.382 24.7335 220.447 24.7356L209.695 24.7597C208.76 24.7618 208.005 25.4652 208.009 26.3308Z" fill="#338AF3"/>
<path d="M191.007 89.5991L191.053 99.5499C191.057 100.415 191.818 101.115 192.754 101.113L203.506 101.089C204.441 101.087 205.196 100.384 205.192 99.5183L205.146 89.5674C205.142 88.7019 204.381 88.0019 203.446 88.0039L192.694 88.028C191.758 88.0301 191.003 88.7335 191.007 89.5991Z" fill="#3B3E50"/>
<path d="M208.081 42.0918L208.127 52.0426C208.131 52.9082 208.892 53.6082 209.827 53.6061L220.58 53.582C221.515 53.5799 222.27 52.8765 222.266 52.0109L222.22 42.0601C222.216 41.1945 221.455 40.4945 220.519 40.4966L209.767 40.5207C208.832 40.5228 208.077 41.2262 208.081 42.0918Z" fill="#3B3E50" fill-opacity="0.56"/>
<path d="M208.226 73.6159L208.271 83.5668C208.275 84.4323 209.037 85.1323 209.972 85.1302L220.724 85.1062C221.66 85.1041 222.415 84.4007 222.411 83.5351L222.365 73.5843C222.361 72.7187 221.6 72.0187 220.664 72.0208L209.912 72.0449C208.977 72.047 208.222 72.7503 208.226 73.6159Z" fill="#3B3E50" fill-opacity="0.56"/>
<path d="M293.007 73.5991L293.053 83.5499C293.057 84.4155 293.818 85.1155 294.754 85.1134L305.506 85.0893C306.441 85.0872 307.196 84.3838 307.192 83.5183L307.146 73.5674C307.142 72.7019 306.381 72.0019 305.446 72.0039L294.694 72.028C293.758 72.0301 293.003 72.7335 293.007 73.5991Z" fill="#3B3E50" fill-opacity="0.56"/>
<path d="M208.007 89.5991L208.053 99.5499C208.057 100.415 208.818 101.115 209.754 101.113L220.506 101.089C221.441 101.087 222.196 100.384 222.192 99.5183L222.146 89.5674C222.142 88.7019 221.381 88.0019 220.446 88.0039L209.694 88.028C208.758 88.0301 208.003 88.7335 208.007 89.5991Z" fill="#338AF3"/>
<path d="M293.007 89.5988L293.053 99.5497C293.057 100.415 293.818 101.115 294.754 101.113L305.506 101.089C306.441 101.087 307.196 100.384 307.192 99.518L307.146 89.5672C307.142 88.7016 306.381 88.0016 305.446 88.0037L294.693 88.0278C293.758 88.0299 293.003 88.7333 293.007 89.5988Z" fill="#338AF3" fill-opacity="0.39"/>
<path d="M259.007 89.5991L259.053 99.5499C259.057 100.415 259.818 101.115 260.754 101.113L271.506 101.089C272.441 101.087 273.196 100.384 273.192 99.5183L273.146 89.5674C273.142 88.7019 272.381 88.0019 271.446 88.0039L260.694 88.028C259.758 88.0301 259.003 88.7335 259.007 89.5991Z" fill="#3B3E50" fill-opacity="0.56"/>
<path d="M343.498 57.5522L343.544 67.503C343.548 68.3686 344.309 69.0686 345.245 69.0665L355.997 69.0425C356.932 69.0404 357.687 68.337 357.683 67.4714L357.637 57.5206C357.633 56.655 356.872 55.955 355.937 55.9571L345.184 55.9811C344.249 55.9832 343.494 56.6866 343.498 57.5522Z" fill="#338AF3"/>
<path d="M275.826 57.7038L275.872 67.6546C275.876 68.5202 276.637 69.2202 277.572 69.2181L288.324 69.1941C289.26 69.192 290.015 68.4886 290.011 67.623L289.965 57.6722C289.961 56.8066 289.2 56.1066 288.264 56.1087L277.512 56.1327C276.577 56.1348 275.822 56.8382 275.826 57.7038Z" fill="#338AF3"/>
<path d="M241.759 57.78L241.805 67.7308C241.809 68.5964 242.57 69.2964 243.506 69.2943L254.258 69.2702C255.193 69.2681 255.948 68.5648 255.944 67.6992L255.898 57.7483C255.894 56.8828 255.133 56.1828 254.198 56.1849L243.446 56.2089C242.51 56.211 241.755 56.9144 241.759 57.78Z" fill="#338AF3"/>
<path d="M309.432 57.6284L309.477 67.5792C309.481 68.4448 310.243 69.1448 311.178 69.1427L321.93 69.1186C322.866 69.1165 323.621 68.4131 323.617 67.5476L323.571 57.5967C323.567 56.7311 322.805 56.0312 321.87 56.0332L311.118 56.0573C310.183 56.0594 309.428 56.7628 309.432 57.6284Z" fill="#338AF3"/>
<path d="M225.186 57.8169L225.232 67.7677C225.236 68.6333 225.998 69.3333 226.933 69.3312L237.685 69.3071C238.62 69.305 239.375 68.6016 239.371 67.736L239.326 57.7852C239.322 56.9196 238.56 56.2196 237.625 56.2217L226.873 56.2458C225.937 56.2479 225.182 56.9513 225.186 57.8169Z" fill="#338AF3"/>
<path d="M360.532 57.5141L360.577 67.4649C360.581 68.3305 361.343 69.0305 362.278 69.0284L373.03 69.0044C373.965 69.0023 374.72 68.2989 374.716 67.4333L374.671 57.4825C374.667 56.6169 373.905 55.9169 372.97 55.919L362.218 55.943C361.283 55.9451 360.528 56.6485 360.532 57.5141Z" fill="#2980F8"/>
<path d="M292.859 57.6655L292.905 67.6163C292.909 68.4819 293.67 69.1819 294.605 69.1798L305.357 69.1557C306.293 69.1536 307.048 68.4503 307.044 67.5847L306.998 57.6338C306.994 56.7683 306.233 56.0683 305.297 56.0704L294.545 56.0944C293.61 56.0965 292.855 56.7999 292.859 57.6655Z" fill="#338AF3"/>
<path d="M258.793 57.7419L258.838 67.6927C258.842 68.5583 259.604 69.2583 260.539 69.2562L271.291 69.2322C272.226 69.2301 272.981 68.5267 272.977 67.6611L272.932 57.7103C272.928 56.8447 272.166 56.1447 271.231 56.1468L260.479 56.1708C259.544 56.1729 258.789 56.8763 258.793 57.7419Z" fill="#338AF3"/>
<path d="M326.465 57.5903L326.51 67.5411C326.514 68.4067 327.276 69.1067 328.211 69.1046L338.963 69.0805C339.899 69.0785 340.654 68.3751 340.65 67.5095L340.604 57.5586C340.6 56.6931 339.838 55.9931 338.903 55.9952L328.151 56.0192C327.216 56.0213 326.461 56.7247 326.465 57.5903Z" fill="#338AF3" fill-opacity="0.55"/>
<path d="M343.643 89.0756L343.689 99.0265C343.693 99.8921 344.454 100.592 345.389 100.59L356.142 100.566C357.077 100.564 357.832 99.8604 357.828 98.9948L357.782 89.044C357.778 88.1784 357.017 87.4784 356.081 87.4805L345.329 87.5046C344.394 87.5067 343.639 88.2101 343.643 89.0756Z" fill="#338AF3"/>
<path d="M241.904 89.3032L241.95 99.254C241.954 100.12 242.715 100.82 243.65 100.817L254.402 100.793C255.338 100.791 256.093 100.088 256.089 99.2224L256.043 89.2715C256.039 88.406 255.278 87.706 254.342 87.708L243.59 87.7321C242.655 87.7342 241.9 88.4376 241.904 89.3032Z" fill="#338AF3"/>
<path d="M309.577 89.1518L309.622 99.1026C309.626 99.9682 310.388 100.668 311.323 100.666L322.075 100.642C323.01 100.64 323.765 99.9366 323.761 99.071L323.716 89.1202C323.712 88.2546 322.95 87.5546 322.015 87.5567L311.263 87.5807C310.328 87.5828 309.573 88.2862 309.577 89.1518Z" fill="#2864AE"/>
<path d="M225.331 89.3403L225.377 99.2911C225.381 100.157 226.142 100.857 227.078 100.855L237.83 100.831C238.765 100.828 239.52 100.125 239.516 99.2595L239.47 89.3086C239.466 88.4431 238.705 87.7431 237.77 87.7452L227.017 87.7692C226.082 87.7713 225.327 88.4747 225.331 89.3403Z" fill="#3B3E50" fill-opacity="0.56"/>
<path d="M360.676 89.0373L360.722 98.9881C360.726 99.8537 361.487 100.554 362.423 100.552L373.175 100.528C374.11 100.525 374.865 99.8221 374.861 98.9565L374.815 89.0057C374.812 88.1401 374.05 87.4401 373.115 87.4422L362.363 87.4662C361.427 87.4683 360.672 88.1717 360.676 89.0373Z" fill="#338AF3"/>
<path d="M276.007 73.5991L276.053 83.5499C276.057 84.4155 276.818 85.1155 277.754 85.1134L288.506 85.0893C289.441 85.0872 290.196 84.3838 290.192 83.5183L290.146 73.5674C290.142 72.7019 289.381 72.0019 288.446 72.0039L277.694 72.028C276.758 72.0301 276.003 72.7335 276.007 73.5991Z" fill="#338AF3" fill-opacity="0.69"/>
<path d="M326.609 89.1135L326.655 99.0643C326.659 99.9299 327.421 100.63 328.356 100.628L339.108 100.604C340.043 100.602 340.798 99.8983 340.794 99.0327L340.749 89.0818C340.745 88.2163 339.983 87.5163 339.048 87.5184L328.296 87.5424C327.36 87.5445 326.605 88.2479 326.609 89.1135Z" fill="#3B3E50" fill-opacity="0.56"/>
<path d="M343.353 26.028L343.399 35.9789C343.403 36.8444 344.165 37.5444 345.1 37.5424L355.852 37.5183C356.787 37.5162 357.542 36.8128 357.538 35.9472L357.493 25.9964C357.489 25.1308 356.727 24.4308 355.792 24.4329L345.04 24.457C344.104 24.4591 343.349 25.1624 343.353 26.028Z" fill="#3B3E50" fill-opacity="0.56"/>
<path d="M275.681 26.1794L275.727 36.1302C275.731 36.9958 276.492 37.6958 277.427 37.6937L288.18 37.6697C289.115 37.6676 289.87 36.9642 289.866 36.0986L289.82 26.1478C289.816 25.2822 289.055 24.5822 288.119 24.5843L277.367 24.6083C276.432 24.6104 275.677 25.3138 275.681 26.1794Z" fill="#338AF3" fill-opacity="0.86"/>
<path d="M241.615 26.2556L241.66 36.2064C241.664 37.072 242.426 37.772 243.361 37.7699L254.113 37.7458C255.048 37.7437 255.803 37.0403 255.799 36.1748L255.754 26.2239C255.75 25.3583 254.988 24.6583 254.053 24.6604L243.301 24.6845C242.366 24.6866 241.611 25.39 241.615 26.2556Z" fill="#2761AA"/>
<path d="M309.287 26.1042L309.333 36.055C309.337 36.9206 310.098 37.6206 311.033 37.6185L321.785 37.5945C322.721 37.5924 323.476 36.889 323.472 36.0234L323.426 26.0726C323.422 25.207 322.661 24.507 321.725 24.5091L310.973 24.5331C310.038 24.5352 309.283 25.2386 309.287 26.1042Z" fill="#286BBC"/>
<path d="M225.042 26.2927L225.088 36.2435C225.092 37.1091 225.853 37.8091 226.788 37.807L237.54 37.7829C238.476 37.7808 239.231 37.0775 239.227 36.2119L239.181 26.261C239.177 25.3955 238.416 24.6955 237.48 24.6976L226.728 24.7216C225.793 24.7237 225.038 25.4271 225.042 26.2927Z" fill="#2760A8"/>
<path d="M360.387 25.9897L360.433 35.9405C360.437 36.8061 361.198 37.5061 362.133 37.504L372.885 37.48C373.821 37.4779 374.576 36.7745 374.572 35.9089L374.526 25.9581C374.522 25.0925 373.761 24.3925 372.825 24.3946L362.073 24.4186C361.138 24.4207 360.383 25.1241 360.387 25.9897Z" fill="#338AF3"/>
<path d="M292.714 26.1413L292.76 36.0921C292.764 36.9577 293.525 37.6577 294.461 37.6556L305.213 37.6316C306.148 37.6295 306.903 36.9261 306.899 36.0605L306.853 26.1097C306.849 25.2441 306.088 24.5441 305.153 24.5462L294.4 24.5702C293.465 24.5723 292.71 25.2757 292.714 26.1413Z" fill="#338AF3"/>
<path d="M258.648 26.2177L258.694 36.1686C258.698 37.0341 259.459 37.7341 260.394 37.732L271.146 37.708C272.082 37.7059 272.837 37.0025 272.833 36.1369L272.787 26.1861C272.783 25.3205 272.022 24.6205 271.086 24.6226L260.334 24.6467C259.399 24.6488 258.644 25.3521 258.648 26.2177Z" fill="#338AF3"/>
<path d="M326.32 26.0659L326.366 36.0167C326.37 36.8823 327.131 37.5823 328.066 37.5802L338.819 37.5561C339.754 37.554 340.509 36.8506 340.505 35.9851L340.459 26.0342C340.455 25.1686 339.694 24.4687 338.758 24.4707L328.006 24.4948C327.071 24.4969 326.316 25.2003 326.32 26.0659Z" fill="#2761AA"/>
<path d="M343.715 104.838L343.761 114.789C343.765 115.654 344.527 116.354 345.462 116.352L356.214 116.328C357.149 116.326 357.904 115.623 357.9 114.757L357.855 104.806C357.851 103.941 357.089 103.241 356.154 103.243L345.402 103.267C344.466 103.269 343.711 103.972 343.715 104.838Z" fill="#2661A9"/>
<path d="M360.749 104.8L360.795 114.751C360.799 115.616 361.56 116.316 362.495 116.314L373.247 116.29C374.183 116.288 374.938 115.585 374.934 114.719L374.888 104.768C374.884 103.903 374.123 103.203 373.187 103.205L362.435 103.229C361.5 103.231 360.745 103.934 360.749 104.8Z" fill="#3B3E50" fill-opacity="0.56"/>
<path d="M326.682 104.876L326.728 114.827C326.732 115.692 327.493 116.392 328.428 116.39L339.181 116.366C340.116 116.364 340.871 115.661 340.867 114.795L340.821 104.844C340.817 103.979 340.056 103.279 339.12 103.281L328.368 103.305C327.433 103.307 326.678 104.01 326.682 104.876Z" fill="#3B3E50" fill-opacity="0.56"/>
<path d="M343.426 41.789L343.472 51.7399C343.476 52.6054 344.237 53.3054 345.172 53.3033L355.924 53.2793C356.86 53.2772 357.615 52.5738 357.611 51.7082L357.565 41.7574C357.561 40.8918 356.8 40.1918 355.864 40.1939L345.112 40.218C344.177 40.22 343.422 40.9234 343.426 41.789Z" fill="#338AF3"/>
<path d="M275.754 41.9404L275.799 51.8912C275.803 52.7568 276.565 53.4568 277.5 53.4547L288.252 53.4306C289.187 53.4285 289.942 52.7252 289.938 51.8596L289.893 41.9087C289.889 41.0432 289.127 40.3432 288.192 40.3453L277.44 40.3693C276.505 40.3714 275.75 41.0748 275.754 41.9404Z" fill="#3B3E50" fill-opacity="0.56"/>
<path d="M241.687 42.0166L241.733 51.9674C241.737 52.833 242.498 53.533 243.433 53.5309L254.186 53.5068C255.121 53.5047 255.876 52.8013 255.872 51.9357L255.826 41.9849C255.822 41.1193 255.061 40.4193 254.125 40.4214L243.373 40.4455C242.438 40.4476 241.683 41.151 241.687 42.0166Z" fill="#22538F"/>
<path d="M309.359 41.8652L309.405 51.816C309.409 52.6816 310.171 53.3816 311.106 53.3795L321.858 53.3554C322.793 53.3534 323.548 52.65 323.544 51.7844L323.499 41.8335C323.495 40.968 322.733 40.268 321.798 40.2701L311.046 40.2941C310.11 40.2962 309.355 40.9996 309.359 41.8652Z" fill="#3B3E50" fill-opacity="0.56"/>
<path d="M225.114 42.0534L225.16 52.0043C225.164 52.8698 225.925 53.5698 226.86 53.5677L237.613 53.5437C238.548 53.5416 239.303 52.8382 239.299 51.9726L239.253 42.0218C239.249 41.1562 238.488 40.4562 237.553 40.4583L226.8 40.4824C225.865 40.4844 225.11 41.1878 225.114 42.0534Z" fill="#338AF3"/>
<path d="M360.459 41.7507L360.505 51.7015C360.509 52.5671 361.27 53.2671 362.206 53.265L372.958 53.2409C373.893 53.2389 374.648 52.5355 374.644 51.6699L374.598 41.719C374.594 40.8535 373.833 40.1535 372.898 40.1556L362.146 40.1796C361.21 40.1817 360.455 40.8851 360.459 41.7507Z" fill="#338AF3" fill-opacity="0.67"/>
<path d="M292.786 41.9021L292.832 51.8529C292.836 52.7185 293.598 53.4185 294.533 53.4164L305.285 53.3923C306.22 53.3902 306.975 52.6868 306.971 51.8212L306.926 41.8704C306.922 41.0048 306.16 40.3048 305.225 40.3069L294.473 40.331C293.537 40.3331 292.782 41.0365 292.786 41.9021Z" fill="#338AF3" fill-opacity="0.66"/>
<path d="M258.72 41.9787L258.766 51.9295C258.77 52.7951 259.531 53.4951 260.467 53.493L271.219 53.469C272.154 53.4669 272.909 52.7635 272.905 51.8979L272.859 41.9471C272.855 41.0815 272.094 40.3815 271.159 40.3836L260.407 40.4076C259.471 40.4097 258.716 41.1131 258.72 41.9787Z" fill="#338AF3" fill-opacity="0.38"/>
<path d="M326.392 41.8269L326.438 51.7777C326.442 52.6433 327.203 53.3433 328.139 53.3412L338.891 53.3171C339.826 53.315 340.581 52.6116 340.577 51.746L340.531 41.7952C340.527 40.9296 339.766 40.2296 338.831 40.2317L328.079 40.2558C327.143 40.2579 326.388 40.9613 326.392 41.8269Z" fill="#338AF3"/>
<path d="M343.57 73.3132L343.616 83.264C343.62 84.1296 344.382 84.8296 345.317 84.8275L356.069 84.8034C357.004 84.8014 357.759 84.098 357.755 83.2324L357.71 73.2815C357.706 72.416 356.944 71.716 356.009 71.7181L345.257 71.7421C344.321 71.7442 343.566 72.4476 343.57 73.3132Z" fill="#3B3E50" fill-opacity="0.56"/>
<path d="M241.832 73.5407L241.877 83.4916C241.881 84.3571 242.643 85.0571 243.578 85.055L254.33 85.031C255.266 85.0289 256.02 84.3255 256.017 83.4599L255.971 73.5091C255.967 72.6435 255.205 71.9435 254.27 71.9456L243.518 71.9697C242.583 71.9718 241.828 72.6751 241.832 73.5407Z" fill="#338AF3"/>
<path d="M309.504 73.3894L309.55 83.3402C309.554 84.2058 310.315 84.9058 311.25 84.9037L322.003 84.8796C322.938 84.8775 323.693 84.1741 323.689 83.3085L323.643 73.3577C323.639 72.4921 322.878 71.7921 321.942 71.7942L311.19 71.8183C310.255 71.8204 309.5 72.5238 309.504 73.3894Z" fill="#338AF3"/>
<path d="M225.259 73.5778L225.305 83.5287C225.308 84.3943 226.07 85.0943 227.005 85.0922L237.757 85.0681C238.693 85.066 239.448 84.3626 239.444 83.497L239.398 73.5462C239.394 72.6806 238.633 71.9806 237.697 71.9827L226.945 72.0068C226.01 72.0089 225.255 72.7123 225.259 73.5778Z" fill="#22538F"/>
<path d="M258.865 73.5026L258.911 83.4535C258.915 84.3191 259.676 85.0191 260.611 85.017L271.363 84.9929C272.299 84.9908 273.054 84.2874 273.05 83.4218L273.004 73.471C273 72.6054 272.239 71.9054 271.303 71.9075L260.551 71.9316C259.616 71.9337 258.861 72.6371 258.865 73.5026Z" fill="#22538F"/>
<path d="M326.537 73.351L326.583 83.3019C326.587 84.1674 327.348 84.8674 328.284 84.8654L339.036 84.8413C339.971 84.8392 340.726 84.1358 340.722 83.2702L340.676 73.3194C340.672 72.4538 339.911 71.7538 338.976 71.7559L328.223 71.78C327.288 71.7821 326.533 72.4855 326.537 73.351Z" fill="#338AF3"/>
<path d="M361.007 73.5988L361.053 83.5497C361.057 84.4152 361.818 85.1152 362.754 85.1132L373.506 85.0891C374.441 85.087 375.196 84.3836 375.192 83.518L375.146 73.5672C375.142 72.7016 374.381 72.0016 373.446 72.0037L362.694 72.0278C361.758 72.0299 361.003 72.7333 361.007 73.5988Z" fill="#338AF3"/>
<path d="M276.007 89.5991L276.053 99.5499C276.057 100.415 276.818 101.115 277.754 101.113L288.506 101.089C289.441 101.087 290.196 100.384 290.192 99.5183L290.146 89.5674C290.142 88.7019 289.381 88.0019 288.446 88.0039L277.694 88.028C276.758 88.0301 276.003 88.7335 276.007 89.5991Z" fill="#338AF3"/>
<path d="M2.71731 42.3044L2.76301 52.2552C2.76698 53.1208 3.5284 53.8208 4.46369 53.8187L15.2158 53.7947C16.1511 53.7926 16.9061 53.0892 16.9021 52.2236L16.8564 42.2728C16.8525 41.4072 16.091 40.7072 15.1558 40.7093L4.4036 40.7333C3.46831 40.7354 2.71334 41.4388 2.71731 42.3044Z" fill="#338AF3"/>
<path d="M19.8233 58.0271L19.869 67.9779C19.8729 68.8435 20.6344 69.5435 21.5696 69.5414L32.3218 69.5173C33.2571 69.5152 34.0121 68.8118 34.0081 67.9462L33.9624 57.9954C33.9584 57.1298 33.197 56.4298 32.2617 56.4319L21.5096 56.456C20.5743 56.4581 19.8193 57.1615 19.8233 58.0271Z" fill="#338AF3"/>
<path d="M19.7507 42.2663L19.7964 52.2171C19.8004 53.0827 20.5618 53.7827 21.4971 53.7806L32.2493 53.7566C33.1845 53.7545 33.9395 53.0511 33.9356 52.1855L33.8899 42.2347C33.8859 41.3691 33.1245 40.6691 32.1892 40.6712L21.437 40.6952C20.5017 40.6973 19.7468 41.4007 19.7507 42.2663Z" fill="#338AF3" fill-opacity="0.69"/>
<path d="M2.64505 26.5422L2.69074 36.493C2.69471 37.3586 3.45614 38.0586 4.39142 38.0565L15.1436 38.0324C16.0789 38.0304 16.8338 37.327 16.8299 36.4614L16.7842 26.5105C16.7802 25.645 16.0188 24.945 15.0835 24.9471L4.33134 24.9711C3.39605 24.9732 2.64107 25.6766 2.64505 26.5422Z" fill="#338AF3"/>
<path d="M19.6783 26.5044L19.724 36.4552C19.728 37.3208 20.4894 38.0208 21.4247 38.0187L32.1769 37.9946C33.1122 37.9925 33.8671 37.2891 33.8632 36.4235L33.8175 26.4727C33.8135 25.6071 33.0521 24.9071 32.1168 24.9092L21.3646 24.9333C20.4293 24.9354 19.6744 25.6388 19.6783 26.5044Z" fill="#338AF3"/>
<path d="M36.8971 73.7548L36.9428 83.7057C36.9468 84.5713 37.7082 85.2713 38.6435 85.2692L49.3957 85.2451C50.3309 85.243 51.0859 84.5396 51.0819 83.674L51.0362 73.7232C51.0323 72.8576 50.2709 72.1576 49.3356 72.1597L38.5834 72.1838C37.6481 72.1859 36.8931 72.8893 36.8971 73.7548Z" fill="#3B3E50" fill-opacity="0.56"/>
<path d="M36.7525 42.2309L36.7982 52.1817C36.8021 53.0473 37.5636 53.7473 38.4988 53.7452L49.251 53.7212C50.1863 53.7191 50.9413 53.0157 50.9373 52.1501L50.8916 42.1993C50.8876 41.3337 50.1262 40.6337 49.1909 40.6358L38.4388 40.6598C37.5035 40.6619 36.7485 41.3653 36.7525 42.2309Z" fill="#338AF3"/>
<path d="M37.2742 105.599L37.3191 115.55C37.323 116.415 38.0714 117.115 38.9907 117.113L49.5592 117.089C50.4785 117.087 51.2206 116.384 51.2167 115.518L51.1718 105.567C51.1679 104.702 50.4195 104.002 49.5001 104.004L38.9317 104.028C38.0124 104.03 37.2703 104.733 37.2742 105.599Z" fill="#338AF3" fill-opacity="0.63"/>
<path d="M3.00706 105.599L3.05198 115.55C3.05588 116.415 3.8043 117.115 4.72361 117.113L15.2921 117.089C16.2114 117.087 16.9535 116.384 16.9496 115.518L16.9047 105.567C16.9008 104.702 16.1523 104.002 15.233 104.004L4.66455 104.028C3.74524 104.03 3.00316 104.733 3.00706 105.599Z" fill="#338AF3" fill-opacity="0.63"/>
<path d="M36.8248 57.9917L36.8705 67.9425C36.8745 68.8081 37.6359 69.5081 38.5712 69.506L49.3233 69.4819C50.2586 69.4798 51.0136 68.7764 51.0096 67.9108L50.9639 57.96C50.9599 57.0944 50.1985 56.3944 49.2632 56.3965L38.5111 56.4206C37.5758 56.4227 36.8208 57.1261 36.8248 57.9917Z" fill="#338AF3"/>
<path d="M36.9696 89.5158L37.0153 99.4667C37.0192 100.332 37.7807 101.032 38.7159 101.03L49.4681 101.006C50.4034 101.004 51.1584 100.301 51.1544 99.435L51.1087 89.4842C51.1047 88.6186 50.3433 87.9186 49.408 87.9207L38.6559 87.9448C37.7206 87.9469 36.9656 88.6502 36.9696 89.5158Z" fill="#338AF3"/>
<path d="M36.68 26.4685L36.7257 36.4193C36.7296 37.2849 37.491 37.9849 38.4263 37.9828L49.1785 37.9587C50.1138 37.9566 50.8688 37.2532 50.8648 36.3877L50.8191 26.4368C50.8151 25.5712 50.0537 24.8712 49.1184 24.8733L38.3662 24.8974C37.431 24.8995 36.676 25.6029 36.68 26.4685Z" fill="#2760A8"/>
<path d="M20.0072 74.5988L20.0529 84.5497C20.0569 85.4152 20.8183 86.1152 21.7536 86.1132L32.5057 86.0891C33.441 86.087 34.196 85.3836 34.192 84.518L34.1463 74.5672C34.1424 73.7016 33.3809 73.0016 32.4456 73.0037L21.6935 73.0278C20.7582 73.0299 20.0032 73.7333 20.0072 74.5988Z" fill="#338AF3"/>
<path d="M3.00723 58.5991L3.05292 68.5499C3.0569 69.4155 3.81832 70.1155 4.75361 70.1134L15.5058 70.0893C16.441 70.0872 17.196 69.3838 17.1921 68.5183L17.1464 58.5674C17.1424 57.7019 16.381 57.0019 15.4457 57.0039L4.69352 57.028C3.75823 57.0301 3.00325 57.7335 3.00723 58.5991Z" fill="#3B3E50" fill-opacity="0.56"/>
<path d="M138.007 57.5991L138.053 67.5499C138.057 68.4155 138.818 69.1155 139.754 69.1134L150.506 69.0893C151.441 69.0872 152.196 68.3838 152.192 67.5183L152.146 57.5674C152.142 56.7019 151.381 56.0019 150.446 56.0039L139.694 56.028C138.758 56.0301 138.003 56.7335 138.007 57.5991Z" fill="#338AF3" fill-opacity="0.72"/>
<path d="M3.0072 74.5988L3.05289 84.5497C3.05687 85.4152 3.81829 86.1152 4.75358 86.1132L15.5057 86.0891C16.441 86.087 17.196 85.3836 17.192 84.518L17.1463 74.5672C17.1424 73.7016 16.3809 73.0016 15.4456 73.0037L4.69349 73.0278C3.7582 73.0299 3.00322 73.7333 3.0072 74.5988Z" fill="#2864AE"/>
<path d="M174.007 73.5991L174.053 83.5499C174.057 84.4155 174.818 85.1155 175.754 85.1134L186.506 85.0893C187.441 85.0872 188.196 84.3838 188.192 83.5183L188.146 73.5674C188.142 72.7019 187.381 72.0019 186.446 72.0039L175.694 72.028C174.758 72.0301 174.003 72.7335 174.007 73.5991Z" fill="#338AF3"/>
<path d="M104.57 73.6035L104.615 83.5543C104.619 84.4199 105.381 85.1199 106.316 85.1178L117.068 85.0937C118.003 85.0916 118.758 84.3882 118.754 83.5227L118.709 73.5718C118.705 72.7062 117.943 72.0062 117.008 72.0083L106.256 72.0324C105.321 72.0345 104.566 72.7379 104.57 73.6035Z" fill="#338AF3"/>
<path d="M70.5031 73.6796L70.5488 83.6305C70.5528 84.4961 71.3142 85.1961 72.2495 85.194L83.0017 85.1699C83.937 85.1678 84.6919 84.4644 84.688 83.5988L84.6423 73.648C84.6383 72.7824 83.8769 72.0824 82.9416 72.0845L72.1894 72.1086C71.2541 72.1107 70.4992 72.8141 70.5031 73.6796Z" fill="#3B3E50" fill-opacity="0.56"/>
<path d="M138.175 73.5283L138.221 83.4791C138.225 84.3447 138.987 85.0447 139.922 85.0426L150.674 85.0185C151.609 85.0164 152.364 84.313 152.36 83.4475L152.315 73.4966C152.311 72.631 151.549 71.9311 150.614 71.9331L139.862 71.9572C138.926 71.9593 138.171 72.6627 138.175 73.5283Z" fill="#338AF3"/>
<path d="M53.9302 73.717L53.9759 83.6678C53.9799 84.5334 54.7413 85.2334 55.6766 85.2313L66.4287 85.2073C67.364 85.2052 68.119 84.5018 68.115 83.6362L68.0693 73.6854C68.0654 72.8198 67.3039 72.1198 66.3686 72.1219L55.6165 72.1459C54.6812 72.148 53.9262 72.8514 53.9302 73.717Z" fill="#2980F8"/>
<path d="M191.007 73.5991L191.053 83.5499C191.057 84.4155 191.818 85.1155 192.754 85.1134L203.506 85.0893C204.441 85.0872 205.196 84.3838 205.192 83.5183L205.146 73.5674C205.142 72.7018 204.381 72.0019 203.446 72.0039L192.694 72.028C191.758 72.0301 191.003 72.7335 191.007 73.5991Z" fill="#338AF3" fill-opacity="0.45"/>
<path d="M121.603 73.5651L121.648 83.516C121.652 84.3816 122.414 85.0816 123.349 85.0795L134.101 85.0554C135.037 85.0533 135.792 84.3499 135.788 83.4843L135.742 73.5335C135.738 72.6679 134.976 71.9679 134.041 71.97L123.289 71.9941C122.354 71.9962 121.599 72.6996 121.603 73.5651Z" fill="#3B3E50" fill-opacity="0.56"/>
<path d="M87.5365 73.6418L87.5822 83.5926C87.5862 84.4582 88.3476 85.1582 89.2829 85.1561L100.035 85.1321C100.97 85.13 101.725 84.4266 101.721 83.561L101.676 73.6102C101.672 72.7446 100.91 72.0446 99.975 72.0467L89.2228 72.0707C88.2875 72.0728 87.5326 72.7762 87.5365 73.6418Z" fill="#338AF3"/>
<path d="M155.209 73.4902L155.254 83.441C155.258 84.3066 156.02 85.0066 156.955 85.0045L167.707 84.9804C168.642 84.9784 169.397 84.275 169.393 83.4094L169.348 73.4585C169.344 72.593 168.582 71.893 167.647 71.8951L156.895 71.9191C155.96 71.9212 155.205 72.6246 155.209 73.4902Z" fill="#338AF3" fill-opacity="0.48"/>
<path d="M172.387 104.975L172.432 114.926C172.436 115.792 173.198 116.492 174.133 116.49L184.885 116.466C185.821 116.463 186.576 115.76 186.572 114.894L186.526 104.944C186.522 104.078 185.76 103.378 184.825 103.38L174.073 103.404C173.138 103.406 172.383 104.11 172.387 104.975Z" fill="#3B3E50" fill-opacity="0.56"/>
<path d="M291.387 104.975L291.432 114.926C291.436 115.792 292.198 116.492 293.133 116.49L303.885 116.466C304.821 116.463 305.575 115.76 305.572 114.894L305.526 104.944C305.522 104.078 304.76 103.378 303.825 103.38L293.073 103.404C292.138 103.406 291.383 104.11 291.387 104.975Z" fill="#3B3E50" fill-opacity="0.56"/>
<path d="M70.6478 105.203L70.6935 115.154C70.6975 116.019 71.4589 116.719 72.3942 116.717L83.1463 116.693C84.0816 116.691 84.8366 115.988 84.8326 115.122L84.7869 105.171C84.7829 104.306 84.0215 103.606 83.0862 103.608L72.3341 103.632C71.3988 103.634 70.6438 104.337 70.6478 105.203Z" fill="#338AF3"/>
<path d="M88.0072 104.599L88.0529 114.55C88.0569 115.415 88.8183 116.115 89.7536 116.113L100.506 116.089C101.441 116.087 102.196 115.384 102.192 114.518L102.146 104.567C102.142 103.702 101.381 103.002 100.446 103.004L89.6935 103.028C88.7582 103.03 88.0033 103.733 88.0072 104.599Z" fill="#338AF3"/>
<path d="M105.007 104.599L105.053 114.55C105.057 115.415 105.818 116.115 106.754 116.113L117.506 116.089C118.441 116.087 119.196 115.384 119.192 114.518L119.146 104.567C119.142 103.702 118.381 103.002 117.446 103.004L106.694 103.028C105.758 103.03 105.003 103.733 105.007 104.599Z" fill="#338AF3"/>
<path d="M224.007 104.599L224.053 114.55C224.057 115.415 224.818 116.115 225.754 116.113L236.506 116.089C237.441 116.087 238.196 115.384 238.192 114.518L238.146 104.567C238.142 103.702 237.381 103.002 236.446 103.004L225.693 103.028C224.758 103.03 224.003 103.733 224.007 104.599Z" fill="#338AF3"/>
<path d="M138.32 105.051L138.366 115.002C138.37 115.868 139.131 116.568 140.067 116.566L150.819 116.542C151.754 116.54 152.509 115.836 152.505 114.971L152.459 105.02C152.455 104.154 151.694 103.454 150.759 103.456L140.007 103.48C139.071 103.482 138.316 104.186 138.32 105.051Z" fill="#3B3E50" fill-opacity="0.56"/>
<path d="M257.32 105.051L257.366 115.002C257.37 115.868 258.131 116.568 259.067 116.566L269.819 116.542C270.754 116.54 271.509 115.836 271.505 114.971L271.459 105.02C271.455 104.154 270.694 103.454 269.759 103.456L259.007 103.48C258.071 103.482 257.316 104.186 257.32 105.051Z" fill="#3B3E50" fill-opacity="0.56"/>
<path d="M121.007 104.599L121.053 114.55C121.057 115.415 121.818 116.115 122.754 116.113L133.506 116.089C134.441 116.087 135.196 115.384 135.192 114.518L135.146 104.567C135.142 103.702 134.381 103.002 133.446 103.004L122.694 103.028C121.758 103.03 121.003 103.733 121.007 104.599Z" fill="#3B3E50" fill-opacity="0.56"/>
<path d="M240.007 104.599L240.053 114.55C240.057 115.415 240.818 116.115 241.754 116.113L252.506 116.089C253.441 116.087 254.196 115.384 254.192 114.518L254.146 104.567C254.142 103.702 253.381 103.002 252.446 103.004L241.693 103.028C240.758 103.03 240.003 103.733 240.007 104.599Z" fill="#3B3E50" fill-opacity="0.56"/>
<path d="M54.0504 105.24L54.0953 115.191C54.0992 116.056 54.8477 116.756 55.767 116.754L66.3355 116.73C67.2548 116.728 67.9968 116.025 67.9929 115.159L67.948 105.208C67.9441 104.343 67.1957 103.643 66.2764 103.645L55.7079 103.669C54.7886 103.671 54.0465 104.374 54.0504 105.24Z" fill="#2864AE"/>
<path d="M20.0071 105.599L20.052 115.55C20.0559 116.415 20.8043 117.115 21.7236 117.113L32.2921 117.089C33.2114 117.087 33.9535 116.384 33.9496 115.518L33.9047 105.567C33.9008 104.702 33.1523 104.002 32.233 104.004L21.6645 104.028C20.7452 104.03 20.0032 104.733 20.0071 105.599Z" fill="#2864AE"/>
<path d="M189.42 104.937L189.466 114.888C189.47 115.754 190.231 116.454 191.167 116.452L201.919 116.427C202.854 116.425 203.609 115.722 203.605 114.856L203.559 104.906C203.555 104.04 202.794 103.34 201.859 103.342L191.106 103.366C190.171 103.368 189.416 104.072 189.42 104.937Z" fill="#338AF3" fill-opacity="0.67"/>
<path d="M308.42 104.937L308.466 114.888C308.47 115.754 309.231 116.454 310.167 116.452L320.919 116.427C321.854 116.425 322.609 115.722 322.605 114.856L322.559 104.906C322.555 104.04 321.794 103.34 320.859 103.342L310.106 103.366C309.171 103.368 308.416 104.072 308.42 104.937Z" fill="#338AF3" fill-opacity="0.67"/>
<path d="M208.007 104.599L208.053 114.55C208.057 115.415 208.818 116.115 209.754 116.113L220.506 116.089C221.441 116.087 222.196 115.384 222.192 114.518L222.146 104.567C222.142 103.702 221.381 103.002 220.446 103.004L209.693 103.028C208.758 103.03 208.003 103.733 208.007 104.599Z" fill="#338AF3" fill-opacity="0.67"/>
<path d="M327.007 104.599L327.053 114.55C327.057 115.415 327.818 116.115 328.753 116.113L339.506 116.089C340.441 116.087 341.196 115.384 341.192 114.518L341.146 104.567C341.142 103.702 340.381 103.002 339.446 103.004L328.693 103.028C327.758 103.03 327.003 103.733 327.007 104.599Z" fill="#338AF3" fill-opacity="0.67"/>
<path d="M122.007 89.5991L122.053 99.5499C122.057 100.415 122.818 101.115 123.754 101.113L134.506 101.089C135.441 101.087 136.196 100.384 136.192 99.5183L136.146 89.5674C136.142 88.7019 135.381 88.0019 134.446 88.0039L123.694 88.028C122.758 88.0301 122.003 88.7335 122.007 89.5991Z" fill="#338AF3"/>
<path d="M155.353 105.013L155.399 114.964C155.403 115.83 156.164 116.53 157.1 116.528L167.852 116.504C168.787 116.502 169.542 115.798 169.538 114.933L169.492 104.982C169.488 104.116 168.727 103.416 167.792 103.418L157.039 103.442C156.104 103.444 155.349 104.148 155.353 105.013Z" fill="#338AF3" fill-opacity="0.73"/>
<path d="M274.353 105.013L274.399 114.964C274.403 115.83 275.164 116.53 276.1 116.528L286.852 116.504C287.787 116.502 288.542 115.798 288.538 114.933L288.492 104.982C288.488 104.116 287.727 103.416 286.792 103.418L276.039 103.442C275.104 103.444 274.349 104.148 274.353 105.013Z" fill="#338AF3" fill-opacity="0.73"/>
<path d="M70.5888 57.4526L70.6345 67.4034C70.6384 68.269 71.3999 68.969 72.3351 68.9669L83.0873 68.9428C84.0226 68.9408 84.7776 68.2374 84.7736 67.3718L84.7279 57.4209C84.7239 56.5554 83.9625 55.8554 83.0272 55.8575L72.2751 55.8815C71.3398 55.8836 70.5848 56.587 70.5888 57.4526Z" fill="#3B3E50" fill-opacity="0.56"/>
<path d="M174.007 42.5991L174.053 52.5499C174.057 53.4155 174.818 54.1155 175.754 54.1134L186.506 54.0893C187.441 54.0872 188.196 53.3838 188.192 52.5183L188.146 42.5674C188.142 41.7019 187.381 41.0019 186.446 41.0039L175.694 41.028C174.758 41.0301 174.003 41.7335 174.007 42.5991Z" fill="#338AF3"/>
<path d="M104.425 42.0793L104.471 52.0301C104.474 52.8957 105.236 53.5957 106.171 53.5936L116.923 53.5696C117.859 53.5675 118.614 52.8641 118.61 51.9985L118.564 42.0477C118.56 41.1821 117.799 40.4821 116.863 40.4842L106.111 40.5082C105.176 40.5103 104.421 41.2137 104.425 42.0793Z" fill="#338AF3" fill-opacity="0.62"/>
<path d="M70.3584 42.1557L70.4041 52.1066C70.408 52.9721 71.1695 53.6721 72.1047 53.67L82.8569 53.646C83.7922 53.6439 84.5472 52.9405 84.5432 52.0749L84.4975 42.1241C84.4935 41.2585 83.7321 40.5585 82.7968 40.5606L72.0447 40.5847C71.1094 40.5867 70.3544 41.2901 70.3584 42.1557Z" fill="#338AF3" fill-opacity="0.79"/>
<path d="M138.031 42.0039L138.076 51.9547C138.08 52.8203 138.842 53.5203 139.777 53.5182L150.529 53.4941C151.465 53.492 152.22 52.7886 152.216 51.9231L152.17 41.9722C152.166 41.1066 151.404 40.4066 150.469 40.4087L139.717 40.4328C138.782 40.4349 138.027 41.1383 138.031 42.0039Z" fill="#338AF3"/>
<path d="M53.7854 42.1928L53.8311 52.1437C53.835 53.0092 54.5965 53.7092 55.5317 53.7071L66.2839 53.6831C67.2192 53.681 67.9742 52.9776 67.9702 52.112L67.9245 42.1612C67.9205 41.2956 67.1591 40.5956 66.2238 40.5977L55.4717 40.6218C54.5364 40.6239 53.7814 41.3272 53.7854 42.1928Z" fill="#3B3E50" fill-opacity="0.56"/>
<path d="M121.458 42.0412L121.504 51.992C121.508 52.8576 122.269 53.5576 123.204 53.5555L133.956 53.5315C134.892 53.5294 135.647 52.826 135.643 51.9604L135.597 42.0096C135.593 41.144 134.832 40.444 133.896 40.4461L123.144 40.4701C122.209 40.4722 121.454 41.1756 121.458 42.0412Z" fill="#338AF3"/>
<path d="M87.3918 42.1174L87.4375 52.0682C87.4415 52.9338 88.2029 53.6338 89.1382 53.6317L99.8903 53.6076C100.826 53.6056 101.581 52.9022 101.577 52.0366L101.531 42.0857C101.527 41.2202 100.766 40.5202 99.8303 40.5223L89.0781 40.5463C88.1428 40.5484 87.3878 41.2518 87.3918 42.1174Z" fill="#338AF3"/>
<path d="M155.064 41.966L155.109 51.9169C155.113 52.7824 155.875 53.4824 156.81 53.4803L167.562 53.4563C168.498 53.4542 169.253 52.7508 169.249 51.8852L169.203 41.9344C169.199 41.0688 168.437 40.3688 167.502 40.3709L156.75 40.395C155.815 40.397 155.06 41.1004 155.064 41.966Z" fill="#338AF3"/>
<path d="M105.007 58.3566L105.052 68.3075C105.056 69.1731 105.818 69.8731 106.753 69.871L117.505 69.8469C118.44 69.8448 119.195 69.1414 119.191 68.2758L119.146 58.325C119.142 57.4594 118.38 56.7594 117.445 56.7615L106.693 56.7856C105.758 56.7877 105.003 57.4911 105.007 58.3566Z" fill="#3B3E50"/>
<path d="M53.8579 57.9536L53.9036 67.9044C53.9075 68.77 54.669 69.47 55.6043 69.4679L66.3564 69.4438C67.2917 69.4417 68.0467 68.7383 68.0427 67.8728L67.997 57.9219C67.993 57.0563 67.2316 56.3563 66.2963 56.3584L55.5442 56.3825C54.6089 56.3846 53.8539 57.088 53.8579 57.9536Z" fill="#338AF3"/>
<path d="M121.53 57.8022L121.576 67.753C121.58 68.6186 122.341 69.3186 123.277 69.3165L134.029 69.2925C134.964 69.2904 135.719 68.587 135.715 67.7214L135.669 57.7706C135.665 56.905 134.904 56.205 133.969 56.2071L123.217 56.2311C122.281 56.2332 121.526 56.9366 121.53 57.8022Z" fill="#338AF3"/>
<path d="M87.4641 57.8784L87.5098 67.8292C87.5137 68.6948 88.2752 69.3948 89.2105 69.3927L99.9626 69.3686C100.898 69.3665 101.653 68.6631 101.649 67.7976L101.603 57.8467C101.599 56.9811 100.838 56.2812 99.9025 56.2832L89.1504 56.3073C88.2151 56.3094 87.4601 57.0128 87.4641 57.8784Z" fill="#338AF3" fill-opacity="0.63"/>
<path d="M155.136 57.727L155.182 67.6778C155.186 68.5434 155.947 69.2434 156.883 69.2413L167.635 69.2173C168.57 69.2152 169.325 68.5118 169.321 67.6462L169.275 57.6954C169.271 56.8298 168.51 56.1298 167.575 56.1319L156.822 56.1559C155.887 56.158 155.132 56.8614 155.136 57.727Z" fill="#338AF3"/>
<path d="M174.007 89.5991L174.053 99.5499C174.057 100.415 174.818 101.115 175.754 101.113L186.506 101.089C187.441 101.087 188.196 100.384 188.192 99.5183L188.146 89.5674C188.142 88.7019 187.381 88.0019 186.446 88.004L175.694 88.028C174.758 88.0301 174.003 88.7335 174.007 89.5991Z" fill="#338AF3" fill-opacity="0.76"/>
<path d="M70.5755 89.4406L70.6212 99.3915C70.6252 100.257 71.3866 100.957 72.3219 100.955L83.0741 100.931C84.0093 100.929 84.7643 100.225 84.7603 99.3598L84.7147 89.409C84.7107 88.5434 83.9493 87.8434 83.014 87.8455L72.2618 87.8696C71.3265 87.8717 70.5716 88.5751 70.5755 89.4406Z" fill="#338AF3"/>
<path d="M138.248 89.2893L138.294 99.2401C138.297 100.106 139.059 100.806 139.994 100.804L150.746 100.78C151.682 100.777 152.437 100.074 152.433 99.2085L152.387 89.2576C152.383 88.392 151.622 87.692 150.686 87.6941L139.934 87.7182C138.999 87.7203 138.244 88.4237 138.248 89.2893Z" fill="#3B3E50" fill-opacity="0.56"/>
<path d="M54.0026 89.478L54.0483 99.4288C54.0523 100.294 54.8137 100.994 55.749 100.992L66.5011 100.968C67.4364 100.966 68.1914 100.263 68.1874 99.3972L68.1417 89.4463C68.1377 88.5808 67.3763 87.8808 66.441 87.8829L55.6889 87.9069C54.7536 87.909 53.9986 88.6124 54.0026 89.478Z" fill="#3B3E50" fill-opacity="0.56"/>
<path d="M87.6088 89.4025L87.6545 99.3534C87.6585 100.219 88.4199 100.919 89.3552 100.917L100.107 100.893C101.043 100.891 101.798 100.187 101.794 99.3217L101.748 89.3709C101.744 88.5053 100.983 87.8053 100.047 87.8074L89.2951 87.8315C88.3598 87.8336 87.6048 88.537 87.6088 89.4025Z" fill="#3B3E50" fill-opacity="0.56"/>
<path d="M155.281 89.2509L155.327 99.2018C155.331 100.067 156.092 100.767 157.027 100.765L167.779 100.741C168.715 100.739 169.47 100.036 169.466 99.1701L169.42 89.2193C169.416 88.3537 168.655 87.6537 167.719 87.6558L156.967 87.6799C156.032 87.682 155.277 88.3854 155.281 89.2509Z" fill="#338AF3"/>
<path d="M105.007 89.5988L105.053 99.5497C105.057 100.415 105.818 101.115 106.754 101.113L117.506 101.089C118.441 101.087 119.196 100.384 119.192 99.518L119.146 89.5672C119.142 88.7016 118.381 88.0016 117.446 88.0037L106.694 88.0278C105.758 88.0299 105.003 88.7333 105.007 89.5988Z" fill="#3B3E50" fill-opacity="0.56"/>
<path d="M104.353 26.3171L104.398 36.2679C104.402 37.1335 105.164 37.8335 106.099 37.8314L116.851 37.8074C117.786 37.8053 118.541 37.1019 118.537 36.2363L118.492 26.2855C118.488 25.4199 117.726 24.7199 116.791 24.722L106.039 24.746C105.104 24.7481 104.349 25.4515 104.353 26.3171Z" fill="#338AF3"/>
<path d="M70.2858 26.3935L70.3315 36.3443C70.3355 37.2099 71.0969 37.9099 72.0322 37.9078L82.7843 37.8838C83.7196 37.8817 84.4746 37.1783 84.4706 36.3127L84.4249 26.3619C84.4209 25.4963 83.6595 24.7963 82.7242 24.7984L71.9721 24.8224C71.0368 24.8245 70.2818 25.5279 70.2858 26.3935Z" fill="#338AF3"/>
<path d="M137.958 26.2419L138.004 36.1927C138.008 37.0583 138.77 37.7583 139.705 37.7562L150.457 37.7322C151.392 37.7301 152.147 37.0267 152.143 36.1611L152.098 26.2103C152.094 25.3447 151.332 24.6447 150.397 24.6468L139.645 24.6708C138.709 24.6729 137.954 25.3763 137.958 26.2419Z" fill="#2980F8"/>
<path d="M53.7131 26.4306L53.7588 36.3815C53.7628 37.247 54.5242 37.947 55.4595 37.9449L66.2116 37.9209C67.1469 37.9188 67.9019 37.2154 67.8979 36.3498L67.8522 26.399C67.8483 25.5334 67.0868 24.8334 66.1515 24.8355L55.3994 24.8596C54.4641 24.8616 53.7091 25.565 53.7131 26.4306Z" fill="#2980F8"/>
<path d="M121.385 26.2793L121.431 36.2301C121.435 37.0957 122.197 37.7957 123.132 37.7936L133.884 37.7695C134.819 37.7674 135.574 37.064 135.57 36.1984L135.525 26.2476C135.521 25.382 134.759 24.682 133.824 24.6841L123.072 24.7082C122.136 24.7103 121.381 25.4137 121.385 26.2793Z" fill="#2760A8"/>
<path d="M87.3194 26.3554L87.3651 36.3063C87.369 37.1718 88.1305 37.8718 89.0657 37.8697L99.8179 37.8457C100.753 37.8436 101.508 37.1402 101.504 36.2746L101.458 26.3238C101.455 25.4582 100.693 24.7582 99.7578 24.7603L89.0057 24.7844C88.0704 24.7865 87.3154 25.4898 87.3194 26.3554Z" fill="#3B3E50" fill-opacity="0.56"/>
<path d="M154.991 26.2038L155.037 36.1546C155.041 37.0202 155.802 37.7202 156.738 37.7181L167.49 37.6941C168.425 37.692 169.18 36.9886 169.176 36.123L169.13 26.1722C169.126 25.3066 168.365 24.6066 167.43 24.6087L156.678 24.6327C155.742 24.6348 154.987 25.3382 154.991 26.2038Z" fill="#338AF3"/>
<path d="M20.0072 89.5988L20.0529 99.5497C20.0569 100.415 20.8183 101.115 21.7536 101.113L32.5057 101.089C33.441 101.087 34.196 100.384 34.192 99.518L34.1463 89.5672C34.1424 88.7016 33.3809 88.0016 32.4456 88.0037L21.6935 88.0278C20.7582 88.0299 20.0032 88.7333 20.0072 89.5988Z" fill="#338AF3"/>
<path d="M3.0072 89.5988L3.05289 99.5497C3.05687 100.415 3.81829 101.115 4.75358 101.113L15.5057 101.089C16.441 101.087 17.196 100.384 17.192 99.518L17.1463 89.5672C17.1424 88.7016 16.3809 88.0016 15.4456 88.0037L4.69349 88.0278C3.7582 88.0299 3.00322 88.7333 3.0072 89.5988Z" fill="#3B3E50" fill-opacity="0.56"/>
<path d="M191.007 58.5991L191.053 68.5499C191.057 69.4155 191.818 70.1155 192.754 70.1134L203.506 70.0893C204.441 70.0872 205.196 69.3838 205.192 68.5183L205.146 58.5674C205.142 57.7019 204.381 57.0019 203.446 57.0039L192.694 57.028C191.758 57.0301 191.003 57.7335 191.007 58.5991Z" fill="#338AF3"/>
</svg>
