<svg width="39" height="34" viewBox="0 0 39 34" fill="none" xmlns="http://www.w3.org/2000/svg">
<path d="M15.504 0.887993C12.7733 3.36266 10.64 6.136 9.104 9.20799C7.65333 12.1947 6.928 15.096 6.928 17.912C7.61067 17.5707 8.50667 17.4 9.616 17.4C11.7493 17.4 13.4987 18.168 14.864 19.704C16.3147 21.1547 17.04 23.032 17.04 25.336C17.04 27.8107 16.2293 29.8587 14.608 31.48C13.072 33.016 11.1093 33.784 8.72 33.784C6.07467 33.784 3.984 32.9733 2.448 31.352C0.912 29.6453 0.144 27.5547 0.144 25.08C0.144 19.704 1.12533 14.968 3.088 10.872C5.05067 6.69066 7.65333 3.40533 10.896 1.016C11.5787 0.503995 12.3893 0.247993 13.328 0.247993C14.1813 0.247993 14.9067 0.461327 15.504 0.887993ZM37.008 0.887993C34.3627 3.36266 32.272 6.136 30.736 9.20799C29.2853 12.28 28.56 15.1813 28.56 17.912C29.2427 17.5707 30.096 17.4 31.12 17.4C33.2533 17.4 35.0027 18.168 36.368 19.704C37.8187 21.1547 38.544 23.032 38.544 25.336C38.544 27.896 37.7333 29.944 36.112 31.48C34.576 33.016 32.6133 33.784 30.224 33.784C27.5787 33.784 25.488 32.9733 23.952 31.352C22.5013 29.6453 21.776 27.5547 21.776 25.08C21.776 19.6187 22.7573 14.84 24.72 10.744C26.6827 6.56266 29.2427 3.36266 32.4 1.144C33.168 0.546661 34.0213 0.247993 34.96 0.247993C35.728 0.247993 36.4107 0.461327 37.008 0.887993Z" fill="#338AF3"/>
</svg>
